<svg xmlns="http://www.w3.org/2000/svg" viewBox="0 0 512.001 512.001"><circle cx="256" cy="256" r="256" fill="#999"/><path fill="#fff" d="M350.44 437.337H120.001V74.664H392v321.112z"/><path d="M204.576 273.336l-25.672 31.193-10.784-10.497-7.12 7.72 18.736 18.224 32.736-39.784zm0 60.688l-25.672 31.192-10.784-10.487-7.12 7.711 18.736 18.224 32.736-39.776z" fill="#e21b1b"/><g fill="#ccc"><path d="M232.629 282.669h118.362v8H232.629zm0 19.885h118.362v8H232.629zm0 40.806h118.362v8H232.629zm0 19.884h118.362v8H232.629zm34.738-230.457h83.075v23.44h-83.075zm0 67.913h83.075v23.44h-83.075zm0-33.961h83.075v23.44h-83.075z"/><circle cx="203.828" cy="153.877" r="21.13"/></g><path d="M202.824 224.096L182.4 179.848s-21.408.288-21.408 20v24.264l41.832-.016zm1.976 0l20.408-44.248s21.408.288 21.408 20v24.264l-41.816-.016z"/><path fill="#999" d="M203.824 182.016H191.08l12.744 28.208 12.744-28.208z"/><path fill="#ccc" d="M350.44 437.337v-41.561H392z"/></svg>